<svg width="11" height="11" viewBox="0 0 11 11" fill="none" xmlns="http://www.w3.org/2000/svg">
<g clip-path="url(#clip0_83_2269)">
<path d="M5.48279 10.9956C4.24557 10.9956 3.00749 11.0034 1.77027 10.9931C0.636876 10.9836 0.0597954 10.4413 0.00961455 9.33704C-0.0128803 8.85235 0.0234576 8.36423 0.00096267 7.87954C-0.0198018 7.43181 0.229372 7.36821 0.595347 7.37251C0.941422 7.37681 1.23126 7.38368 1.20011 7.85634C1.17589 8.22587 1.19146 8.5997 1.19838 8.97095C1.21396 9.75813 1.2477 9.80024 2.02723 9.80454C3.49459 9.81227 4.96282 9.80712 6.43017 9.80712C7.32218 9.80712 8.21419 9.81743 9.1062 9.80282C9.73692 9.79251 9.77499 9.74352 9.79576 9.09985C9.8096 8.67188 9.81739 8.2422 9.80181 7.81423C9.78624 7.3897 10.0501 7.37079 10.3642 7.37852C10.6895 7.38626 11.0165 7.35274 10.9992 7.84087C10.9802 8.38313 11.0148 8.92798 10.9854 9.46938C10.9343 10.4242 10.3529 10.9759 9.36749 10.9905C8.07317 11.0094 6.77798 10.9948 5.48279 10.9956Z" fill="#828282"/>
<path d="M2.07397 3.25197C3.13729 2.20267 4.16427 1.20236 5.17308 0.184861C5.44907 -0.0935768 5.63682 -0.0351393 5.8834 0.214079C6.79098 1.13361 7.6951 2.0583 8.63816 2.94088C9.05431 3.33017 8.74457 3.50205 8.52395 3.76416C8.25747 4.08041 8.04896 4.08127 7.76345 3.77447C7.30231 3.27775 6.80396 2.81541 6.31426 2.33158C6.0573 2.58252 6.14036 2.82314 6.13863 3.03455C6.12911 4.43705 6.13863 5.83955 6.13084 7.24119C6.12738 7.91236 6.03913 7.96736 5.38851 7.94416C5.05455 7.93213 4.93169 7.79892 4.93429 7.47924C4.94121 6.50642 4.93429 5.53361 4.93429 4.55994C4.93429 3.84838 4.93429 3.13681 4.93429 2.44674C4.61936 2.29892 4.52592 2.53611 4.39354 2.65814C4.11841 2.9108 3.85972 3.18064 3.59498 3.44361C3.10182 3.93288 2.59482 3.86872 2.07397 3.25111V3.25197Z" fill="#828282"/>
</g>
<defs>
<clipPath id="clip0_83_2269">
<rect width="11" height="11" fill="white"/>
</clipPath>
</defs>
</svg>
