<svg width="12" height="13" viewBox="0 0 12 13" fill="none" xmlns="http://www.w3.org/2000/svg">
<path d="M11.9661 12.1093C11.8643 11.0728 11.5817 10.0791 11.0734 9.15718C10.0049 7.22115 8.33029 6.21384 6.07348 6.19249C3.82068 6.17114 2.11709 7.13381 1.00167 9.04558C0.418496 10.0451 0.146881 11.1417 0.026052 12.2723C-0.0468447 12.9526 -0.00889848 12.9875 0.703093 12.9933C2.4636 13.0059 4.2241 12.9972 5.98461 12.9972C7.71216 12.9972 9.43972 13.004 11.1663 12.9953C12.034 12.9904 12.05 12.9768 11.9651 12.1102L11.9661 12.1093Z" fill="#333333"/>
<path d="M6.04249 5.48895C7.57133 5.47051 8.81257 4.23708 8.80858 2.74066C8.80358 1.24716 7.55435 0.0166411 6.02552 0.000143678C4.52265 -0.0153833 3.22349 1.22969 3.20052 2.70767C3.17655 4.22932 4.4837 5.50738 6.04249 5.48895Z" fill="#333333"/>
</svg>
