<svg width="12" height="10" viewBox="0 0 12 10" fill="none" xmlns="http://www.w3.org/2000/svg">
<g clip-path="url(#clip0_83_2302)">
<path d="M6.03311 0.550878C7.44857 0.550878 8.86403 0.543489 10.2786 0.55334C11.4078 0.56155 11.9719 1.03605 11.9838 2.04335C12.0059 3.9077 12.0051 5.77206 11.9838 7.63641C11.9719 8.69379 11.4265 9.16501 10.2353 9.16911C7.40439 9.17978 4.57431 9.17978 1.74339 9.16911C0.521636 9.16336 0.00931649 8.68065 0.00506841 7.56089C-0.00172853 5.77288 -0.000878917 3.98487 0.00421879 2.19768C0.00846688 1.00404 0.519937 0.554982 1.87168 0.550878C3.25825 0.546773 4.64568 0.550057 6.03311 0.550878ZM5.93965 8.12159C7.29819 8.12159 8.65672 8.12816 10.0144 8.11913C10.7544 8.1142 10.8105 8.07069 10.8148 7.43528C10.8258 5.72444 10.8249 4.0136 10.8148 2.30276C10.8105 1.65258 10.7587 1.60907 10.0365 1.60743C7.34831 1.60168 4.66012 1.60168 1.97108 1.60743C1.22342 1.60907 1.18434 1.64109 1.18094 2.2847C1.17244 3.99554 1.17244 5.70638 1.18094 7.41722C1.18349 8.07562 1.22512 8.11338 1.94984 8.11831C3.27949 8.12816 4.61 8.12077 5.93965 8.12077V8.12159Z" fill="#626161"/>
<path d="M3.29565 2.99646H2.52079C2.32513 2.99646 2.1665 3.14973 2.1665 3.33879V4.08749C2.1665 4.27655 2.32513 4.42982 2.52079 4.42982H3.29565C3.49132 4.42982 3.64994 4.27655 3.64994 4.08749V3.33879C3.64994 3.14973 3.49132 2.99646 3.29565 2.99646Z" fill="#626161"/>
<path d="M6.38573 2.99646H5.61088C5.41521 2.99646 5.25659 3.14973 5.25659 3.33879V4.08749C5.25659 4.27655 5.41521 4.42982 5.61088 4.42982H6.38573C6.5814 4.42982 6.74002 4.27655 6.74002 4.08749V3.33879C6.74002 3.14973 6.5814 2.99646 6.38573 2.99646Z" fill="#626161"/>
<path d="M9.48003 2.99646H8.70518C8.50951 2.99646 8.35089 3.14973 8.35089 3.33879V4.08749C8.35089 4.27655 8.50951 4.42982 8.70518 4.42982H9.48003C9.6757 4.42982 9.83432 4.27655 9.83432 4.08749V3.33879C9.83432 3.14973 9.6757 2.99646 9.48003 2.99646Z" fill="#626161"/>
<path d="M3.29565 5.5553H2.52079C2.32513 5.5553 2.1665 5.70856 2.1665 5.89763V6.64633C2.1665 6.83539 2.32513 6.98866 2.52079 6.98866H3.29565C3.49132 6.98866 3.64994 6.83539 3.64994 6.64633V5.89763C3.64994 5.70856 3.49132 5.5553 3.29565 5.5553Z" fill="#626161"/>
<path d="M6.38573 5.5553H5.61088C5.41521 5.5553 5.25659 5.70856 5.25659 5.89763V6.64633C5.25659 6.83539 5.41521 6.98866 5.61088 6.98866H6.38573C6.5814 6.98866 6.74002 6.83539 6.74002 6.64633V5.89763C6.74002 5.70856 6.5814 5.5553 6.38573 5.5553Z" fill="#626161"/>
<path d="M3.0272 0H2.78846C2.53085 0 2.32202 0.201784 2.32202 0.450696V1.71987C2.32202 1.96878 2.53085 2.17057 2.78846 2.17057H3.0272C3.28481 2.17057 3.49364 1.96878 3.49364 1.71987V0.450696C3.49364 0.201784 3.28481 0 3.0272 0Z" fill="#626161"/>
<path d="M9.21153 0H8.97279C8.71518 0 8.50635 0.201784 8.50635 0.450696V1.71987C8.50635 1.96878 8.71518 2.17057 8.97279 2.17057H9.21153C9.46914 2.17057 9.67797 1.96878 9.67797 1.71987V0.450696C9.67797 0.201784 9.46914 0 9.21153 0Z" fill="#626161"/>
</g>
<defs>
<clipPath id="clip0_83_2302">
<rect width="12" height="9.17647" fill="white"/>
</clipPath>
</defs>
</svg>
