<svg width="15" height="13" viewBox="0 0 15 13" fill="none" xmlns="http://www.w3.org/2000/svg">
<g clip-path="url(#clip0_83_2319)">
<path d="M13.5357 5.20318C13.5357 6.55449 13.5357 7.89755 13.5357 9.23969C13.5357 9.91259 13.5519 10.5864 13.5309 11.2593C13.4967 12.3508 12.8834 12.9402 11.749 12.9898C11.3382 13.0081 10.9256 12.9944 10.5129 12.9944C8.23079 12.9944 5.94965 12.998 3.66755 12.9934C2.01399 12.9898 1.46438 12.4491 1.45773 10.8242C1.45202 9.26355 1.45963 7.70293 1.45297 6.14322C1.45202 5.8412 1.50717 5.53091 1.37405 5.24082C1.05266 5.07833 0.79402 5.58874 0.497348 5.32986C0.315732 5.17105 0.207332 4.93236 0.068505 4.72856C-0.0655679 4.53211 0.00955096 4.38614 0.192118 4.26956C0.324289 4.1851 0.456461 4.10156 0.591484 4.01986C2.68625 2.75483 4.79053 1.5045 6.86914 0.214688C7.33792 -0.0763227 7.67833 -0.0689785 8.14141 0.217442C10.2219 1.5045 12.3271 2.75483 14.42 4.02261C15.1569 4.46877 15.1389 4.52844 14.6568 5.19675C14.2774 5.72186 14.0064 5.1077 13.5347 5.20318H13.5357ZM7.49957 11.7119C8.79751 11.7119 10.0964 11.722 11.3943 11.7082C12.1579 11.7 12.2159 11.6458 12.2197 10.9242C12.2311 8.87615 12.2149 6.82806 12.2321 4.77997C12.2359 4.36595 12.0961 4.10248 11.7262 3.88674C10.4805 3.15968 9.24251 2.41792 8.0216 1.65413C7.6479 1.42004 7.36169 1.42279 6.9899 1.65413C5.76708 2.417 4.52999 3.15968 3.28625 3.8895C2.92492 4.10156 2.75567 4.35126 2.75947 4.77355C2.77754 6.82164 2.75947 8.86973 2.77278 10.9178C2.77754 11.6219 2.86312 11.699 3.60575 11.7073C4.90369 11.7211 6.20163 11.711 7.50052 11.711L7.49957 11.7119Z" fill="#333333"/>
<path d="M7.52137 4.6066C9.01043 4.61302 10.1629 5.72474 10.1676 7.15959C10.1724 8.57976 8.99997 9.72728 7.53278 9.74105C6.03325 9.75482 4.80568 8.56691 4.8285 7.12471C4.85132 5.71464 6.04276 4.60017 7.52137 4.6066ZM7.55845 5.88631C6.81202 5.86244 6.19775 6.38846 6.15306 7.08982C6.10647 7.8123 6.7369 8.45767 7.49379 8.46042C8.22501 8.46409 8.82501 7.90043 8.84213 7.1954C8.85924 6.47292 8.30774 5.90926 7.5594 5.88539L7.55845 5.88631Z" fill="#333333"/>
</g>
<defs>
<clipPath id="clip0_83_2319">
<rect width="15" height="13" fill="white"/>
</clipPath>
</defs>
</svg>
