<svg width="13" height="13" viewBox="0 0 13 13" fill="none" xmlns="http://www.w3.org/2000/svg">
<g clip-path="url(#clip0_83_2220)">
<path d="M12.9755 4.70845C12.6986 2.24151 10.9904 0.488604 8.51871 0.134343C7.88696 0.0441676 7.23069 0 6.51271 0C5.99714 0 5.45706 0.023004 4.86161 0.069932C1.96697 0.296291 0.0136154 2.29119 0 5.03235V5.04523C0.00998464 5.14921 0.0163385 5.25503 0.0236001 5.35992C0.0381232 5.59088 0.0526463 5.83012 0.100754 6.06292C0.514663 8.08451 1.82447 9.37642 3.99386 9.90367C4.44861 10.0141 4.58567 10.1889 4.56116 10.6242C4.53212 11.1358 4.53393 11.6722 4.56933 12.2188C4.61381 12.9245 5.02409 13 5.19837 13C5.33724 13 5.49155 12.9568 5.65766 12.873C7.59831 11.8875 10.0545 10.4576 11.8382 8.13696C12.7322 6.97388 13.1053 5.85221 12.9764 4.70845H12.9755ZM6.04706 11.1854C5.95357 11.2416 5.90728 11.2508 5.88731 11.2517C5.87823 11.2361 5.86098 11.1854 5.86189 11.0299C5.86189 10.8524 5.86189 10.6748 5.86007 10.4962C5.85826 10.2165 5.85644 9.92667 5.86007 9.64326C5.86915 9.07092 5.58051 8.75807 5.02681 8.73691C4.65647 8.7231 4.3061 8.61913 3.93576 8.50871L3.83864 8.48018C2.54608 8.09832 1.92794 7.26741 1.63657 6.63802C1.19906 5.6921 1.18636 4.50878 1.60299 3.55181C2.18845 2.20654 3.34939 1.50998 5.25555 1.36091C5.38263 1.35079 5.5206 1.34619 5.68943 1.34619C5.81197 1.34619 5.93723 1.34895 6.06884 1.35079C6.21317 1.35355 6.36294 1.35631 6.52632 1.35631H6.52905C6.69969 1.35263 6.87306 1.34895 7.04916 1.34895C7.75806 1.34895 8.59224 1.39588 9.39918 1.74094C10.4802 2.20378 11.2618 3.06781 11.5441 4.11219C11.8245 5.14921 11.6003 6.23591 10.9132 7.16988C9.5789 8.98443 7.70088 10.1944 6.04615 11.1864L6.04706 11.1854Z" fill="#828282"/>
</g>
<defs>
<clipPath id="clip0_83_2220">
<rect width="13" height="13" fill="white"/>
</clipPath>
</defs>
</svg>
