<svg width="16" height="14" viewBox="0 0 16 14" fill="none" xmlns="http://www.w3.org/2000/svg">
<g clip-path="url(#clip0_83_2294)">
<path d="M12.8001 5.38745C12.8103 5.28742 12.8316 5.25339 12.8305 5.25236C12.8362 5.2503 12.8722 5.23483 12.9745 5.23483H12.9948C13.1062 5.23689 13.2176 5.23792 13.329 5.23792C13.5124 5.23792 13.6969 5.23586 13.8803 5.2338C14.0603 5.23174 14.2404 5.22967 14.4193 5.22967C14.5982 5.22967 14.7557 5.23174 14.8997 5.23689C14.9222 5.23689 14.9436 5.23792 14.965 5.23792C15.2845 5.23792 15.5366 5.15439 15.7155 4.99043C16.0024 4.72746 16.0013 4.35519 16.0001 4.08398C16.0001 3.73954 15.9968 2.93209 14.9672 2.93209C14.9459 2.93209 14.9245 2.93209 14.902 2.93312C14.7557 2.93828 14.597 2.94034 14.4159 2.94034C14.2347 2.94034 14.0401 2.93828 13.8522 2.93518C13.6598 2.93312 13.4685 2.93003 13.2761 2.93003C13.2221 2.93003 13.1681 2.93003 13.1073 2.93003C13.0859 2.93003 13.0691 2.93003 13.0544 2.92797C13.0544 2.91559 13.0544 2.90115 13.0578 2.88362C13.0837 2.64541 13.1039 2.4041 13.1242 2.17104C13.1534 1.83383 13.1827 1.48527 13.2277 1.14909C13.275 0.798472 13.203 0.52004 13.0128 0.322043C12.8271 0.128172 12.5492 0.0291733 12.1869 0.0271108C12.1295 0.0271108 12.0609 0.0209234 11.9889 0.0147361C11.8978 0.00751743 11.8032 -0.000732422 11.7042 -0.000732422C11.1248 -0.000732422 10.7805 0.311731 10.7332 0.878908C10.7039 1.23468 10.6702 1.59046 10.6364 1.9452C10.6117 2.20507 10.5869 2.46391 10.5644 2.72378C10.5464 2.93003 10.5194 2.93725 10.3191 2.93725H10.2978C9.81055 2.929 9.27947 2.92487 8.67525 2.92487C8.10816 2.92487 7.54107 2.92797 6.97398 2.93209H6.79171C6.74557 2.93312 6.71294 2.93106 6.69044 2.92797C6.69044 2.90734 6.69044 2.87743 6.69606 2.83619C6.7377 2.5165 6.76133 2.19476 6.78495 1.88333C6.80408 1.62036 6.82434 1.34812 6.85584 1.08619C6.89297 0.769598 6.81983 0.513852 6.63981 0.327199C6.38552 0.0632039 6.01196 0.0260796 5.75317 0.0209234C5.70253 0.0209234 5.65078 0.0167985 5.59902 0.0137048C5.52363 0.00957989 5.44599 0.00442374 5.36386 0.00442374C4.57398 0.00442374 4.40971 0.538602 4.38158 0.856221C4.32419 1.51105 4.27131 2.01223 4.20943 2.48041C4.18917 2.63613 4.16442 2.82278 4.13854 2.91147C4.03502 2.92693 3.81674 2.929 3.61983 2.93106L3.37905 2.93415C3.10338 2.93725 2.82884 2.94137 2.55317 2.94137C2.2775 2.94137 2.05696 2.93828 1.84318 2.93106C1.8218 2.93106 1.80042 2.93003 1.77905 2.93003C0.767513 2.93003 0.756262 3.73748 0.751761 4.08398C0.74726 4.39025 0.765263 4.73778 1.03418 4.9863C1.21196 5.1513 1.46175 5.23483 1.77567 5.23483C1.80493 5.23483 1.83418 5.23483 1.86568 5.23277C2.00071 5.22658 2.14923 5.22349 2.31913 5.22349C2.47666 5.22349 2.63418 5.22555 2.79283 5.22864C2.9256 5.23071 3.05725 5.23277 3.19002 5.2338C3.47581 5.23483 3.76836 5.23689 3.89663 5.25958C3.91463 5.38539 3.891 5.68032 3.86962 5.94432C3.84037 6.31865 3.79986 6.70124 3.76048 7.07042C3.71097 7.5417 3.65922 8.02947 3.62884 8.51415C3.61083 8.78949 3.57258 8.78949 3.35654 8.78949H3.32504C3.16526 8.78536 3.00661 8.78433 2.84684 8.78433C2.64543 8.78433 2.44403 8.78639 2.24374 8.78845C2.04571 8.79052 1.84768 8.79258 1.65078 8.79258C1.43699 8.79258 1.25134 8.79052 1.08144 8.78536C1.06006 8.78536 1.03981 8.78536 1.01955 8.78536C0.01027 8.78639 0.00351892 9.57219 0.000143389 9.90734V9.93828C-0.00210696 10.1734 -0.00660766 10.5684 0.282563 10.8354C0.46034 11.0004 0.71238 11.084 1.02968 11.084C1.05668 11.084 1.08369 11.084 1.11294 11.0819C1.33348 11.0726 1.57426 11.0685 1.84881 11.0685C2.12335 11.0685 2.39789 11.0726 2.67131 11.0768L2.88509 11.0799C3.04487 11.0819 3.21927 11.085 3.33404 11.0933C3.32954 11.1902 3.31379 11.3325 3.29803 11.4758C3.27778 11.6584 3.26203 11.8419 3.24628 12.0255C3.22377 12.2926 3.20239 12.5452 3.16639 12.7989C3.11688 13.1516 3.18214 13.4238 3.36554 13.6301C3.55232 13.8394 3.84037 13.9549 4.24543 13.9828C4.40071 13.9931 4.52673 14.0003 4.63924 14.0003C5.55626 14.0003 5.61365 13.3919 5.6654 12.8546C5.67666 12.7401 5.68341 12.6257 5.69128 12.5102C5.70141 12.3483 5.71154 12.1956 5.73179 12.0451C5.78242 11.6522 5.83981 11.2077 5.91857 11.1448C6.00071 11.0788 6.48791 11.0788 6.95936 11.0788H7.29578V11.0819H7.74585C7.92588 11.0819 8.10704 11.0829 8.28706 11.084C8.46934 11.085 8.65275 11.086 8.83502 11.086C9.11407 11.086 9.34473 11.0829 9.56076 11.0768C9.57314 11.0768 9.58439 11.0768 9.59564 11.0768C9.6429 11.0768 9.67553 11.0799 9.69691 11.0829C9.70029 11.1108 9.70141 11.1603 9.68903 11.2418C9.65078 11.5161 9.62602 11.7924 9.60127 12.0595C9.57539 12.3431 9.55176 12.6112 9.51238 12.8804C9.46625 13.1928 9.52701 13.4476 9.69241 13.6352C9.95007 13.9291 10.3664 13.9601 10.6702 13.9828C10.767 13.99 10.8705 13.9972 10.974 13.9972C11.8314 13.9972 11.9889 13.4166 12.0058 13.0701C12.0215 12.7525 12.0587 12.439 12.098 12.1059C12.1318 11.8203 12.1667 11.5253 12.1869 11.2294C12.1925 11.1438 12.2083 11.1036 12.2151 11.0902C12.2286 11.086 12.2612 11.0788 12.3253 11.0788C12.3354 11.0788 12.3467 11.0788 12.358 11.0788C12.4457 11.0819 12.5324 11.0829 12.6201 11.0829C12.7158 11.0829 12.8114 11.0819 12.907 11.0799C12.9925 11.0788 13.0781 11.0778 13.1636 11.0778C14.0288 11.0768 14.4238 11.0757 14.7129 10.9437C15.1518 10.7426 15.1585 10.3456 15.1641 9.962C15.1698 9.5856 15.1754 9.28757 14.9301 9.05864C14.6454 8.79258 14.2595 8.79052 13.2277 8.78742C13.1534 8.78742 13.0792 8.78536 13.0049 8.78433C12.9149 8.7833 12.8238 8.78124 12.7338 8.78124C12.6685 8.78124 12.6021 8.78124 12.5369 8.78433H12.5098C12.4783 8.78433 12.4558 8.7833 12.439 8.7802C12.4367 8.75855 12.4356 8.72246 12.4412 8.6678C12.565 7.59326 12.6921 6.48159 12.8013 5.38436L12.8001 5.38745ZM10.2831 5.36683C10.1301 6.45168 10.0356 7.54582 9.95682 8.56571C9.94445 8.72658 9.90844 8.7668 9.90844 8.7668C9.90844 8.7668 9.87019 8.79052 9.73179 8.79052H9.71941C9.13995 8.78433 8.53235 8.78227 7.91238 8.78227C7.35092 8.78227 6.79058 8.78433 6.22012 8.78845C6.16723 8.78845 6.13235 8.78433 6.10985 8.78124C6.1076 8.76061 6.10647 8.72761 6.1121 8.67811C6.21674 7.64482 6.31238 6.61771 6.42377 5.39364C6.43165 5.30289 6.45303 5.26267 6.45978 5.25649C6.46765 5.25133 6.51041 5.23586 6.6038 5.23586H6.62293C6.83896 5.23999 7.07075 5.24205 7.35317 5.24205C7.5332 5.24205 7.71322 5.24205 7.89325 5.23999C8.07216 5.23999 8.25106 5.23792 8.43109 5.23792H8.62012H9.40999C9.6474 5.23792 9.88481 5.23792 10.1222 5.2338H10.1526C10.219 5.2338 10.264 5.23689 10.2921 5.24102C10.2921 5.26783 10.2921 5.30805 10.2843 5.3658L10.2831 5.36683Z" fill="#333333"/>
</g>
<defs>
<clipPath id="clip0_83_2294">
<rect width="16" height="14" fill="white"/>
</clipPath>
</defs>
</svg>
