<svg width="72" height="72" viewBox="0 0 72 72" fill="none" xmlns="http://www.w3.org/2000/svg">
<g clip-path="url(#clip0_83_2316)">
<path d="M35.9541 71.9719C27.8454 71.9719 19.7366 72.0344 11.6222 71.9549C3.46812 71.8753 0.0616451 68.3764 0.0333521 60.0666C-0.0119167 43.975 -0.0175753 27.8835 0.0390107 11.792C0.0673037 3.67527 3.67749 0.0798122 11.8655 0.0457321C27.8963 -0.0167482 43.9271 -0.0110682 59.9579 0.0457321C68.1176 0.0741322 71.8749 3.68095 71.9202 11.7409C72.022 28.0199 72.0334 44.3045 71.9089 60.5834C71.8523 68.348 68.1233 71.8753 60.2805 71.9549C52.1717 72.0401 44.0629 71.9719 35.9485 71.9719H35.9541ZM7.93276 35.6822L9.17765 36.1991C11.8711 33.8589 14.6891 31.6551 17.2072 29.1445C19.2896 27.0656 20.7325 27.1792 22.7696 29.2808C29.8598 36.6081 37.1198 43.7649 44.3119 50.9842C47.9108 54.5967 51.6171 58.1013 55.0632 61.8501C57.1626 64.1335 59.6241 64.5935 62.227 63.7472C64.8413 62.8952 64.0321 60.2938 64.0434 58.3512C64.1057 43.6002 64.1 28.8491 64.0661 14.0981C64.0547 8.10001 63.885 7.93529 58.1585 7.91825C46.2867 7.88417 34.4207 7.90689 22.5489 7.90689C18.7803 7.90689 15.0117 7.92393 11.243 7.93529C9.25687 7.94097 7.94407 8.77025 7.93841 10.9173C7.91578 19.1704 7.9271 27.4235 7.9271 35.6765L7.93276 35.6822ZM44.7023 64.0312C35.8806 55.1477 27.5794 46.7867 19.2103 38.3518C8.01198 46.2982 7.19148 47.8204 7.88749 59.8394C7.91012 60.2142 7.92144 60.5948 7.92144 60.9697C7.92144 63.1167 9.12106 64.0255 11.1242 64.0255C22.2037 64.0369 33.2833 64.0255 44.708 64.0255L44.7023 64.0312Z" fill="#E0E0E0"/>
<path d="M59.8001 23.93C59.851 30.3654 54.5602 35.8978 48.1773 36.0795C41.6133 36.267 35.9717 30.5926 36.0453 23.8788C36.1188 17.3752 41.4888 12.0587 47.951 12.0814C54.4414 12.1042 59.7435 17.415 59.8001 23.93ZM48.1886 28.0082C50.2993 27.8549 51.9855 25.9009 51.8497 23.7709C51.7083 21.6125 49.8522 20.0051 47.6567 20.1471C45.4782 20.2891 43.8315 22.1578 43.9956 24.3105C44.154 26.4121 46.1345 28.1616 48.1943 28.0082H48.1886Z" fill="#E0E0E0"/>
</g>
<defs>
<clipPath id="clip0_83_2316">
<rect width="72" height="72" fill="white"/>
</clipPath>
</defs>
</svg>
